<?xml version="1.0" encoding="utf-8"?>
<!-- Generator: Adobe Illustrator 17.0.0, SVG Export Plug-In . SVG Version: 6.00 Build 0)  -->
<!DOCTYPE svg PUBLIC "-//W3C//DTD SVG 1.1//EN" "http://www.w3.org/Graphics/SVG/1.1/DTD/svg11.dtd">
<svg version="1.1" id="Layer_1" xmlns="http://www.w3.org/2000/svg" xmlns:xlink="http://www.w3.org/1999/xlink" x="0px" y="0px"
	 width="176px" height="48px" viewBox="0 0 176 48" enable-background="new 0 0 176 48" xml:space="preserve">
<title>Telegrafi</title>
<desc>Created with Sketch.</desc>
<g id="Page-1">
	<g id="Edicioni---Desktop" transform="translate(-19.000000, -18.000000)">
		<g id="Header" transform="translate(-1.000000, 2.000000)">
			<g id="Main-Menu">
				<g id="Logo">
					<g id="Telegrafi" transform="translate(20.000000, 16.000000)">
						<g id="Group">
							<polygon id="Fill-1" fill="#EC008B" points="0.17,0.111 36.204,0.111 36.204,35.802 0.17,35.802 							"/>
							<path id="Fill-2" fill="#FFFFFF" d="M18.959,5.911h4.873c0.575,0,0.97,0.364,0.877,0.805l-0.786,3.747
								c-0.096,0.441-0.64,0.803-1.215,0.803h-4.877c-0.575,0-0.965-0.362-0.873-0.803l0.785-3.747
								C17.836,6.275,18.384,5.911,18.959,5.911"/>
							<path id="Fill-3" fill="#FFFFFF" d="M9.435,12.158h4.877c0.575,0,0.97,0.361,0.877,0.803l-0.789,3.747
								c-0.092,0.444-0.636,0.806-1.211,0.806H8.312c-0.575,0-0.97-0.361-0.873-0.806l0.785-3.747
								C8.317,12.519,8.861,12.158,9.435,12.158"/>
							<path id="Fill-4" fill="#FFFFFF" d="M17.647,12.158h4.873c0.575,0,0.97,0.361,0.877,0.803l-0.785,3.747
								c-0.096,0.444-0.641,0.806-1.215,0.806h-4.873c-0.575,0-0.97-0.361-0.877-0.806l0.79-3.747
								C16.524,12.519,17.072,12.158,17.647,12.158"/>
							<path id="Fill-5" fill="#FFFFFF" d="M16.335,18.402h4.873c0.575,0,0.97,0.361,0.877,0.805l-0.785,3.749
								c-0.092,0.439-0.641,0.801-1.215,0.801h-4.873c-0.575,0-0.97-0.362-0.877-0.801l0.79-3.749
								C15.212,18.763,15.761,18.402,16.335,18.402"/>
							<path id="Fill-6" fill="#FFFFFF" d="M23.183,24.648h4.878c0.575,0,0.97,0.361,0.873,0.805l-0.785,3.748
								c-0.092,0.44-0.636,0.801-1.211,0.801H22.06c-0.575,0-0.97-0.361-0.877-0.801l0.785-3.748
								C22.064,25.01,22.608,24.648,23.183,24.648"/>
							<path id="Fill-7" fill="#FFFFFF" d="M15.024,24.648h4.873c0.579,0,0.97,0.361,0.877,0.805l-0.785,3.748
								c-0.092,0.44-0.641,0.801-1.215,0.801h-4.873c-0.575,0-0.97-0.361-0.877-0.801l0.79-3.748
								C13.905,25.01,14.449,24.648,15.024,24.648"/>
						</g>
						<path id="Fill-8" fill="#FFFFFF" d="M45.806,24.721V16.15H44v-2.482h1.806V9.414h3.144v4.254h2.225v2.482H48.95v8.741
							c0,0.953,0.092,1.571,0.277,1.856c0.18,0.282,0.515,0.426,1.007,0.426c0.18,0,0.466-0.015,0.84-0.044
							c0.07-0.011,0.127-0.017,0.171-0.017v2.395c-0.29,0.088-0.571,0.153-0.861,0.197c-0.286,0.043-0.571,0.063-0.871,0.063
							c-1.411,0-2.378-0.345-2.911-1.037C46.075,28.04,45.806,26.702,45.806,24.721L45.806,24.721z M56.402,18.101v1.569h3.196
							v-1.569c0-0.753-0.123-1.3-0.378-1.642c-0.255-0.341-0.659-0.511-1.213-0.511c-0.559,0-0.963,0.17-1.223,0.511
							C56.53,16.8,56.402,17.348,56.402,18.101L56.402,18.101z M62.614,24.013v0.924c0,1.547-0.418,2.749-1.248,3.607
							c-0.84,0.857-2.013,1.282-3.526,1.282c-1.53,0-2.673-0.467-3.438-1.398c-0.756-0.936-1.135-2.347-1.135-4.243v-5.107
							c0-1.922,0.383-3.348,1.161-4.265c0.774-0.918,1.979-1.376,3.609-1.376c1.592,0,2.788,0.521,3.574,1.568
							c0.792,1.052,1.187,2.638,1.187,4.754v2.392h-6.397v2.989c0,0.748,0.128,1.3,0.383,1.651c0.259,0.349,0.664,0.523,1.223,0.523
							c0.554,0,0.958-0.174,1.213-0.523c0.255-0.351,0.378-0.903,0.378-1.651v-1.128H62.614L62.614,24.013z M65.617,8.17h3.095
							v21.363h-3.095V8.17z M75.083,18.101v1.569h3.196v-1.569c0-0.753-0.128-1.3-0.383-1.642c-0.255-0.341-0.66-0.511-1.214-0.511
							c-0.558,0-0.967,0.17-1.222,0.511C75.206,16.8,75.083,17.348,75.083,18.101L75.083,18.101z M81.295,24.013v0.924
							c0,1.547-0.422,2.749-1.257,3.607c-0.835,0.857-2.009,1.282-3.522,1.282c-1.53,0-2.673-0.467-3.438-1.398
							c-0.756-0.936-1.138-2.347-1.138-4.243v-5.107c0-1.922,0.387-3.348,1.169-4.265c0.77-0.918,1.978-1.376,3.605-1.376
							c1.596,0,2.787,0.521,3.574,1.568c0.788,1.052,1.188,2.638,1.188,4.754v2.392h-6.392v2.989c0,0.748,0.123,1.3,0.378,1.651
							c0.255,0.349,0.664,0.523,1.222,0.523c0.554,0,0.959-0.174,1.214-0.523c0.255-0.351,0.383-0.903,0.383-1.651v-1.128H81.295
							L81.295,24.013z M88.114,23.003c0.523,0,0.884-0.236,1.082-0.707c0.202-0.468,0.299-1.437,0.299-2.886
							c0-1.463-0.096-2.432-0.299-2.899c-0.198-0.473-0.559-0.709-1.082-0.709c-0.514,0-0.875,0.236-1.082,0.709
							c-0.202,0.467-0.303,1.436-0.303,2.899c0,1.449,0.1,2.418,0.303,2.886C87.239,22.767,87.6,23.003,88.114,23.003L88.114,23.003
							z M87.921,29.626c-0.554,0.142-0.985,0.356-1.297,0.639c-0.321,0.285-0.479,0.604-0.479,0.96c0,0.473,0.22,0.829,0.651,1.076
							c0.431,0.244,1.073,0.368,1.903,0.368c0.778,0,1.416-0.149,1.9-0.437c0.492-0.296,0.734-0.66,0.734-1.097
							c0-0.453-0.264-0.805-0.791-1.042C90.005,29.859,89.134,29.699,87.921,29.626L87.921,29.626z M85.885,25.023
							c-0.782-0.395-1.349-1.002-1.684-1.815c-0.338-0.81-0.506-2.012-0.506-3.597c0-2.152,0.374-3.724,1.122-4.704
							c0.756-0.977,1.947-1.47,3.574-1.47c0.748,0,1.389,0.113,1.925,0.342c0.537,0.234,0.981,0.589,1.342,1.071
							c0.259-0.465,0.593-0.807,0.993-1.038c0.396-0.233,0.871-0.347,1.42-0.347h0.216v2.566c-0.202-0.02-0.356-0.033-0.457-0.044
							c-0.101-0.009-0.193-0.016-0.26-0.016c-0.246,0-0.479,0.031-0.686,0.089c-0.211,0.057-0.396,0.146-0.571,0.271
							c0.101,0.41,0.18,0.862,0.228,1.372c0.053,0.51,0.075,1.065,0.075,1.66c0,2.029-0.36,3.541-1.082,4.542
							c-0.729,0.991-1.82,1.492-3.293,1.492c-0.162,0-0.29,0-0.382-0.006c-0.088-0.004-0.172-0.013-0.246-0.024
							c-0.228,0.133-0.413,0.286-0.532,0.449c-0.118,0.177-0.184,0.349-0.184,0.53c0,0.177,0.084,0.327,0.255,0.45
							c0.167,0.126,0.383,0.2,0.647,0.229c0.233,0.031,0.566,0.067,0.998,0.12c1.385,0.161,2.278,0.318,2.673,0.468
							c0.932,0.352,1.613,0.77,2.049,1.268c0.435,0.495,0.646,1.1,0.646,1.808c0,1.185-0.536,2.143-1.623,2.877
							c-1.077,0.736-2.501,1.105-4.269,1.105c-1.64,0-2.91-0.246-3.808-0.734c-0.887-0.491-1.336-1.191-1.336-2.092
							c0-0.567,0.228-1.066,0.681-1.492c0.453-0.429,1.139-0.785,2.045-1.078c-0.581-0.153-1.02-0.379-1.314-0.674
							c-0.295-0.301-0.44-0.677-0.44-1.128c0-0.453,0.145-0.882,0.44-1.291C84.834,25.773,85.283,25.387,85.885,25.023
							L85.885,25.023z M95.742,29.533V13.668h2.91v2.108c0.426-0.785,0.932-1.355,1.504-1.728c0.581-0.371,1.288-0.572,2.124-0.611
							l0.013,3.185c-0.18-0.046-0.387-0.085-0.611-0.107c-0.224-0.026-0.497-0.037-0.809-0.037c-0.747,0-1.262,0.192-1.561,0.578
							c-0.299,0.384-0.443,1.137-0.443,2.251v10.227H95.742L95.742,29.533z M110.163,29.533l-0.321-1.597
							c-0.436,0.585-0.937,1.03-1.482,1.322c-0.554,0.301-1.139,0.45-1.745,0.45c-1.011,0-1.816-0.332-2.422-1.005
							c-0.598-0.664-0.897-1.569-0.897-2.717c0-1.516,0.506-2.84,1.535-3.973c1.029-1.127,2.677-2.176,4.95-3.136v-0.866
							c0-0.736-0.123-1.261-0.365-1.595c-0.246-0.332-0.633-0.499-1.165-0.499c-0.528,0-0.954,0.188-1.261,0.556
							c-0.308,0.371-0.48,0.883-0.493,1.538h-2.972c0.093-1.444,0.576-2.566,1.46-3.369c0.884-0.803,2.075-1.206,3.574-1.206
							c1.552,0,2.665,0.416,3.342,1.252c0.682,0.829,1.02,2.198,1.02,4.099v7.288c0,0.729,0.026,1.378,0.079,1.946
							c0.049,0.57,0.132,1.071,0.246,1.511H110.163L110.163,29.533z M109.78,21.36c-1.16,0.534-2.018,1.117-2.563,1.741
							c-0.545,0.626-0.818,1.338-0.818,2.123c0,0.548,0.128,0.986,0.383,1.311c0.259,0.329,0.594,0.491,1.024,0.491
							c0.339,0,0.673-0.103,1.002-0.314c0.334-0.212,0.655-0.533,0.972-0.956V21.36L109.78,21.36z M116.96,29.533V16.117h-1.851
							v-2.45h1.851v-2.002c0-1.376,0.254-2.33,0.765-2.862C118.234,8.267,119.149,8,120.463,8h1.641v2.394h-0.69
							c-0.519,0-0.88,0.107-1.065,0.329c-0.189,0.222-0.281,0.665-0.281,1.33v1.615h1.943v2.45h-1.943v13.416H116.96L116.96,29.533z
							 M124.293,8.17h3.091v2.987h-3.091V8.17z M124.293,13.668h3.091v15.865h-3.091V13.668z M130.558,26.135h3.412v3.399h-3.412
							V26.135z M146.209,24.013v0.924c0,1.547-0.418,2.749-1.253,3.607c-0.835,0.857-2.013,1.282-3.526,1.282
							c-1.526,0-2.673-0.467-3.434-1.398c-0.756-0.936-1.138-2.347-1.138-4.243v-5.107c0-1.895,0.382-3.307,1.138-4.243
							c0.76-0.932,1.908-1.399,3.434-1.399c1.534,0,2.717,0.436,3.539,1.315c0.827,0.87,1.24,2.114,1.24,3.733v0.706h-3.011v-1.096
							c0-0.747-0.127-1.294-0.383-1.636c-0.259-0.341-0.664-0.511-1.213-0.511c-0.562,0-0.967,0.17-1.222,0.511
							c-0.26,0.342-0.383,0.89-0.383,1.636v7.046c0,0.748,0.123,1.3,0.383,1.651c0.255,0.349,0.659,0.523,1.222,0.523
							c0.55,0,0.954-0.174,1.213-0.523c0.256-0.351,0.383-0.903,0.383-1.651v-1.128H146.209L146.209,24.013z M158.3,19.078v5.107
							c0,1.937-0.386,3.357-1.156,4.276c-0.773,0.907-1.969,1.365-3.574,1.365c-1.618,0-2.814-0.459-3.588-1.365
							c-0.769-0.919-1.156-2.339-1.156-4.276v-5.107c0-1.922,0.387-3.348,1.156-4.265c0.774-0.918,1.97-1.376,3.588-1.376
							c1.6,0,2.792,0.465,3.566,1.385C157.913,15.745,158.3,17.163,158.3,19.078L158.3,19.078z M155.157,18.101
							c0-0.753-0.123-1.3-0.383-1.642c-0.254-0.341-0.655-0.511-1.204-0.511c-0.558,0-0.963,0.17-1.222,0.511
							c-0.255,0.342-0.383,0.89-0.383,1.642v7.04c0,0.748,0.128,1.3,0.383,1.651c0.259,0.349,0.664,0.523,1.222,0.523
							c0.549,0,0.95-0.174,1.204-0.523c0.26-0.351,0.383-0.903,0.383-1.651V18.101L155.157,18.101z M161.439,29.533V13.668h2.937
							v1.946c0.602-0.711,1.178-1.252,1.723-1.621c0.546-0.369,1.06-0.556,1.535-0.556c0.629,0,1.143,0.183,1.556,0.547
							c0.413,0.362,0.713,0.91,0.893,1.629c0.589-0.7,1.165-1.241,1.732-1.614c0.558-0.375,1.082-0.563,1.552-0.563
							c0.954,0,1.627,0.36,2.031,1.073c0.4,0.719,0.602,1.981,0.602,3.803v11.221h-3.103V18.196c0-0.704-0.093-1.204-0.264-1.511
							c-0.172-0.299-0.457-0.449-0.866-0.449c-0.224,0-0.466,0.091-0.721,0.279c-0.251,0.188-0.501,0.449-0.748,0.785v12.233h-3.139
							V18.196c0-0.704-0.088-1.204-0.26-1.511c-0.176-0.299-0.457-0.449-0.853-0.449c-0.237,0-0.479,0.091-0.739,0.279
							c-0.25,0.188-0.501,0.449-0.747,0.785v12.233H161.439L161.439,29.533z"/>
					</g>
				</g>
			</g>
		</g>
	</g>
</g>
</svg>
